<mxfile host="app.diagrams.net" modified="2023-05-21T19:27:30.060Z" agent="Mozilla/5.0 (Windows NT 10.0; Win64; x64) AppleWebKit/537.36 (KHTML, like Gecko) Chrome/113.0.0.0 Safari/537.36" etag="U6KiqzCzxX2dtarW_Dfw" version="21.3.2" type="google">
  <diagram name="Page-1" id="38b20595-45e3-9b7f-d5ca-b57f44c5b66d">
    <mxGraphModel grid="1" page="1" gridSize="10" guides="1" tooltips="1" connect="1" arrows="1" fold="1" pageScale="1" pageWidth="1100" pageHeight="850" background="none" math="0" shadow="0">
      <root>
        <mxCell id="0" />
        <mxCell id="1" parent="0" />
        <mxCell id="0VVCmJiiRC4MUde2Vi9A-1" value="" style="verticalLabelPosition=bottom;html=1;verticalAlign=top;align=center;shape=mxgraph.floorplan.wall;fillColor=strokeColor;" vertex="1" parent="1">
          <mxGeometry x="320" y="190" width="440" height="10" as="geometry" />
        </mxCell>
        <mxCell id="0VVCmJiiRC4MUde2Vi9A-2" value="" style="verticalLabelPosition=bottom;html=1;verticalAlign=top;align=center;shape=mxgraph.floorplan.wall;fillColor=strokeColor;direction=south;" vertex="1" parent="1">
          <mxGeometry x="750" y="286" width="10" height="314" as="geometry" />
        </mxCell>
        <mxCell id="0VVCmJiiRC4MUde2Vi9A-3" value="" style="verticalLabelPosition=bottom;html=1;verticalAlign=top;align=center;shape=mxgraph.floorplan.wall;fillColor=strokeColor;direction=south;" vertex="1" parent="1">
          <mxGeometry x="320" y="200" width="10" height="400" as="geometry" />
        </mxCell>
        <mxCell id="0VVCmJiiRC4MUde2Vi9A-4" value="" style="verticalLabelPosition=bottom;html=1;verticalAlign=top;align=center;shape=mxgraph.floorplan.window;rotation=90;" vertex="1" parent="1">
          <mxGeometry x="275" y="395" width="100" height="10" as="geometry" />
        </mxCell>
        <mxCell id="0VVCmJiiRC4MUde2Vi9A-7" value="" style="verticalLabelPosition=bottom;html=1;verticalAlign=top;align=center;shape=mxgraph.floorplan.doorRight;aspect=fixed;" vertex="1" parent="1">
          <mxGeometry x="680" y="200" width="80" height="85" as="geometry" />
        </mxCell>
        <mxCell id="0VVCmJiiRC4MUde2Vi9A-9" value="" style="verticalLabelPosition=bottom;html=1;verticalAlign=top;align=center;shape=mxgraph.floorplan.doorBifold;dx=0.3;rotation=-180;" vertex="1" parent="1">
          <mxGeometry x="330" y="590" width="420" height="40" as="geometry" />
        </mxCell>
      </root>
    </mxGraphModel>
  </diagram>
</mxfile>
